PathFileType	4	(X/Y/Z)	 s04c0303.trc
DataRate	CameraRate	NumFrames	NumMarkers	Units	OrigDataRate	OrigDataStartFrame	OrigNumFrames
200	200	5	50	mm	200	1501	2000
Frame#	Time	racr			lacr			c7			jug			rlel			rdr			llel			ldr			s2			lic			ric			lasi			rasi			rpsi			lpsi			rgt			lgt			rth1			rth2			rth3			rth4			rlfc			rmfc			rsh1			rsh2			rsh3			rsh4			rlmal			rmmal			rcal			rtoe			rmt5			lth1			lth2			lth4			lth3			llfc			lmfc			lsh1			lsh2			lsh3			lsh4			llmal			lmmal			lcal			ltoe			lmt5			SBIKE			LBIKE			RBIKE			
		X1	Y1	Z1	X2	Y2	Z2	X3	Y3	Z3	X4	Y4	Z4	X5	Y5	Z5	X6	Y6	Z6	X7	Y7	Z7	X8	Y8	Z8	X9	Y9	Z9	X10	Y10	Z10	X11	Y11	Z11	X12	Y12	Z12	X13	Y13	Z13	X14	Y14	Z14	X15	Y15	Z15	X16	Y16	Z16	X17	Y17	Z17	X18	Y18	Z18	X19	Y19	Z19	X20	Y20	Z20	X21	Y21	Z21	X22	Y22	Z22	X23	Y23	Z23	X24	Y24	Z24	X25	Y25	Z25	X26	Y26	Z26	X27	Y27	Z27	X28	Y28	Z28	X29	Y29	Z29	X30	Y30	Z30	X31	Y31	Z31	X32	Y32	Z32	X33	Y33	Z33	X34	Y34	Z34	X35	Y35	Z35	X36	Y36	Z36	X37	Y37	Z37	X38	Y38	Z38	X39	Y39	Z39	X40	Y40	Z40	X41	Y41	Z41	X42	Y42	Z42	X43	Y43	Z43	X44	Y44	Z44	X45	Y45	Z45	X46	Y46	Z46	X47	Y47	Z47	X48	Y48	Z48	X49	Y49	Z49	X50	Y50	Z50	
1501	7.5050	729.226755	1392.875951	-63.749439	722.613361	1371.360255	-384.629176	724.753760	1456.255689	-220.922670	707.267408	1306.128590	-222.546945	590.732397	1132.123798	79.129276	701.138841	909.696130	-62.779659	581.500770	1150.470215	-539.445653	705.372799	915.102522	-445.324119	159.818398	1221.564243	-208.458781	313.765839	1213.275741	-373.106194	319.731314	1218.604314	-56.121685	346.105816	1157.622927	-329.701766	356.584436	1169.307559	-103.931889	194.991809	1261.785701	-167.878737	193.800895	1265.033571	-246.579407	278.526054	1168.264697	-28.803381	240.291490	1117.012686	-394.635382	396.097473	1070.730992	-40.468983	477.587868	1037.462894	-52.796116	531.663313	971.909164	-59.215958	494.129898	1064.478535	-73.734530	623.348317	866.132878	-99.893115	595.494154	862.848261	-212.911324	529.777615	792.695724	-77.443076	469.203139	727.092762	-93.576680	384.082895	705.737016	-95.750572	484.667104	708.302248	-123.972758	264.090807	614.745753	-106.891456	277.506366	619.373362	-194.078037	180.777262	627.224328	-140.630279	433.456181	463.318287	-157.937667	369.003437	474.899402	-96.519979	253.367478	1025.327759	-422.158538	291.282161	947.812952	-432.532323	326.527337	954.700761	-427.086235	285.584209	859.068702	-437.004030	300.514277	692.881903	-432.410263	331.702133	656.200927	-325.898752	254.143359	574.000535	-456.486378	237.628243	489.720285	-440.164736	180.431282	421.760142	-438.957406	265.603243	479.007842	-414.009944	114.268475	290.622866	-436.508552	115.025245	297.984811	-349.398170	37.068764	302.873579	-395.325869	298.633858	148.404389	-405.388552	218.252801	152.142853	-465.928543	-176.204942	933.052417	-279.095829	-3.300998	85.835657	-484.502867	-15.010809	80.494890	-84.011963	
1502	7.5100	726.565780	1394.347670	-63.709438	720.487857	1372.281675	-384.634286	721.974612	1457.345209	-220.909447	704.809204	1307.234531	-221.805716	590.128385	1132.270060	78.575074	701.152288	909.727859	-62.965827	580.395997	1150.358484	-539.197361	705.266661	915.157624	-445.261235	157.700867	1221.168232	-208.869943	311.640935	1213.791715	-373.240764	317.442120	1218.717356	-56.279245	344.289807	1158.036328	-330.041894	354.460587	1169.654428	-104.218764	192.643533	1261.541563	-168.023888	191.606023	1264.907068	-246.693100	276.095808	1167.756390	-29.060250	238.342102	1117.159341	-394.932986	394.193664	1070.691510	-40.744325	476.010745	1037.911797	-52.999610	530.503994	972.746093	-59.487752	492.496247	1065.350453	-73.798411	622.665279	867.461956	-100.109679	594.926500	864.105313	-213.118241	529.715824	793.139784	-77.618006	469.792910	726.861340	-93.872436	384.875789	704.860026	-96.073185	485.442423	708.417476	-124.292385	265.843519	612.932927	-107.288497	279.085284	617.538397	-194.437865	182.516542	624.566636	-141.099352	436.522473	462.858482	-157.725756	371.892984	474.028495	-96.542909	251.181754	1025.301237	-422.318720	289.249960	947.803939	-432.354584	324.514322	955.122609	-428.740781	283.900913	859.162897	-437.382798	299.853099	693.442215	-433.503801	331.952266	656.656847	-327.214447	253.393734	574.801393	-457.367699	236.345409	490.697640	-440.850040	178.699216	423.108745	-439.447649	264.263078	479.904867	-414.691681	111.804463	292.353192	-436.514893	112.735454	299.805448	-349.477020	34.846419	304.880477	-394.980926	295.508609	149.311784	-405.648721	215.083948	153.449179	-466.094125	-176.229230	933.045018	-279.109148	-3.283170	85.860282	-484.501724	-15.025376	80.497622	-83.997159	
1503	7.5150	723.853484	1395.785414	-63.943809	718.301795	1373.199428	-384.511875	718.616959	1458.141950	-222.445059	702.464913	1308.431695	-221.632814	589.459963	1132.495697	78.039003	700.847356	909.425119	-62.859594	579.525416	1150.339390	-538.811949	705.184438	915.200733	-445.204737	155.459773	1220.940945	-209.172331	309.581015	1214.186216	-373.348282	315.189027	1218.830448	-56.434488	342.491167	1158.424191	-330.375520	352.342582	1169.938642	-104.516474	190.318846	1261.367229	-168.321034	189.389401	1264.848646	-246.877438	273.685229	1167.449256	-29.323761	236.538231	1117.399714	-395.320221	392.423228	1070.793238	-41.026012	474.367659	1038.581394	-53.269794	529.055112	973.888286	-59.371537	490.754082	1066.074125	-73.865084	621.863720	868.679076	-100.390543	594.182712	865.225489	-213.273127	529.426007	793.581527	-77.846799	470.116597	726.849203	-94.177587	385.457331	703.954530	-96.475996	485.971715	708.509425	-124.621429	267.218488	611.150620	-107.792290	280.324986	615.877888	-194.828020	184.289041	621.681104	-142.388441	439.245934	462.497509	-157.447328	374.402345	473.203333	-96.505796	248.791891	1025.122210	-421.775847	287.313587	948.229805	-433.324083	322.618499	955.611254	-430.281384	282.313020	859.406513	-437.778849	299.234082	694.081042	-434.594696	332.455215	657.123700	-328.603528	252.632683	575.742000	-458.325765	235.221423	491.687972	-441.626347	177.189824	424.450443	-439.948673	263.107077	480.772452	-415.499026	109.673399	294.044779	-436.570626	110.801059	301.684898	-349.632431	32.975003	307.113487	-394.882517	292.692567	150.210706	-405.885940	212.218737	154.674751	-466.223532	-176.260683	933.059909	-279.134527	-3.304844	85.845148	-484.511451	-15.030291	80.495977	-84.018959	
1504	7.5200	721.231261	1397.197854	-64.008068	716.210673	1374.178151	-384.440810	715.798892	1459.277808	-222.257083	700.107051	1309.684506	-221.475197	588.798205	1132.699093	77.413047	700.836398	909.509702	-62.850825	578.652051	1150.340663	-538.515089	705.119876	915.232825	-445.117083	153.364611	1220.590746	-209.723405	307.609460	1214.819883	-373.745507	312.929791	1218.999075	-56.612739	340.659701	1158.919512	-330.752948	350.250688	1170.212951	-104.813956	188.052977	1261.000740	-168.288581	187.158722	1264.785207	-247.174475	271.270435	1167.255038	-29.691238	234.730846	1117.740263	-395.678652	390.665428	1071.047628	-41.281150	472.556643	1039.107653	-53.452694	527.718817	974.627601	-59.686950	488.892269	1066.847506	-73.850758	620.836561	870.081751	-100.407013	593.265105	866.135147	-213.415889	528.963622	793.998275	-78.046991	470.132482	726.718843	-94.557124	385.756339	703.230204	-96.882957	486.279182	708.604931	-124.955386	268.327864	609.456541	-108.335059	281.399390	614.181591	-195.256435	185.479067	619.286548	-143.194814	441.660282	462.120262	-157.141281	376.572139	472.343030	-96.468706	246.698564	1025.411708	-422.072819	285.455806	948.667591	-434.203308	320.753786	956.184789	-431.719320	280.821214	859.792865	-438.418135	298.682582	694.607046	-435.231949	332.991994	657.826332	-329.890376	251.803529	576.721084	-459.158983	234.269391	492.858479	-442.531758	175.928148	425.866599	-440.495732	262.211557	481.857709	-416.553094	107.938859	295.826365	-436.691550	109.399487	303.447144	-349.716115	31.451966	309.253761	-394.808842	290.199807	150.874920	-406.082377	209.677289	155.689403	-466.274114	-176.285924	933.064838	-279.128049	-3.302015	85.870777	-484.499725	-15.048469	80.514534	-84.017542	
1505	7.5250	718.576465	1398.576513	-64.135206	714.042021	1375.206761	-384.325213	713.024262	1460.540326	-222.288022	697.768887	1310.997547	-221.403753	588.362814	1133.020430	76.980535	700.816090	909.605462	-62.980828	577.809959	1150.383635	-538.222590	705.133354	915.361657	-445.139991	151.269310	1220.331634	-210.215698	305.563257	1215.200977	-373.823034	310.662196	1219.188974	-56.794180	338.812393	1159.403479	-331.118770	348.189188	1170.609710	-104.993684	185.709253	1260.837586	-168.699399	184.989496	1264.707499	-247.439976	268.949896	1167.236507	-30.027715	232.992581	1118.036972	-396.042758	388.895113	1071.404691	-41.477400	470.890599	1039.793217	-53.601176	526.345537	975.402381	-60.072008	487.186657	1067.487554	-74.119856	619.809838	871.103347	-100.674438	592.206150	867.001176	-213.617989	528.325400	794.440042	-78.278898	470.027737	726.634681	-94.907941	385.873148	702.506014	-97.260220	486.394449	708.664541	-125.238495	269.198998	607.898312	-108.836392	282.391467	612.604480	-195.711910	186.359753	616.977310	-143.949793	443.728906	461.891055	-156.768408	378.396994	471.668435	-96.327545	244.720780	1025.682605	-422.458867	283.641428	949.150382	-434.994591	318.933022	956.854659	-433.054279	279.378162	860.268112	-439.273206	298.522680	695.455933	-436.344394	333.727517	658.514129	-331.357645	251.301227	577.830549	-460.235415	233.521317	493.980731	-443.460972	174.976894	427.166621	-441.078640	261.542073	482.768647	-417.459127	106.647622	297.540019	-436.849724	108.324061	305.225221	-350.092050	30.297398	311.179325	-394.913895	288.151109	151.414440	-406.196824	207.579833	156.539021	-466.405281	-176.323185	933.059759	-279.115076	-3.317777	85.850634	-484.495035	-15.034401	80.505219	-84.000984	
